# xmcd
#
# Track frame offsets:
#	150
#	14425
#	34500
#	49925
#	66700
#	84475
#	96500
#	110750
#	123850
#	140825
#
# Disc length: 2058 seconds
#
# Revision: 2
# Processed by: cddbd v1.5.1PL0 Copyright (c) Steve Scherf et al.
# Submitted via: MusicWizard 7.0.2
#
DISCID=9308080a
DTITLE=Kris Kristofferson And The Borderlords - Repossessed
DYEAR=1987
DGENRE=Country
TTITLE0=Mean Old Man
TTITLE1=Shipwrecked In The Eighties
TTITLE2=They Killed Him
TTITLE3=What About Me
TTITLE4=El Gavilan (The Hawk)
TTITLE5=El Coyote
TTITLE6=Anthem '84
TTITLE7=The Heart
TTITLE8=This Old Road
TTITLE9=Love Is The Way
EXTD=(c)1987 Polygram - Mercury\n UPC 0422830406180  YEAR: 1987
EXTT0=
EXTT1=
EXTT2=
EXTT3=
EXTT4=
EXTT5=
EXTT6=
EXTT7=
EXTT8=
EXTT9=
PLAYORDER=
